<svg xmlns="http://www.w3.org/2000/svg" width="2140" height="1480" viewBox="0 0 2140 1480">
<rect width="100%" height="100%" fill="white"/>
<text x="60" y="68" font-family="Arial,sans-serif" font-size="38" fill="#243b44">VirtuTrade / M2 data model</text>
<text x="60" y="108" font-family="Arial,sans-serif" font-size="23" fill="#243b44">PK = primary key    FK = foreign key    UQ = unique    All FKs required</text>
<rect x="60" y="160" width="530" height="310" fill="#f4f8fa" stroke="#35566a" stroke-width="2"/>
<text x="80" y="200" font-family="Arial,sans-serif" font-size="28" fill="#243b44">account</text>
<polyline points="60,215 590,215" fill="none" stroke="#6c8290" stroke-width="2"/>
<text x="78" y="246" font-family="Arial,sans-serif" font-size="21" fill="#243b44">PK id: INTEGER</text>
<text x="78" y="281" font-family="Arial,sans-serif" font-size="21" fill="#243b44">UQ email: TEXT (NOCASE)</text>
<text x="78" y="316" font-family="Arial,sans-serif" font-size="21" fill="#243b44">password_hash: TEXT</text>
<text x="78" y="351" font-family="Arial,sans-serif" font-size="21" fill="#243b44">role: TEXT</text>
<text x="78" y="386" font-family="Arial,sans-serif" font-size="21" fill="#243b44">status: TEXT</text>
<text x="78" y="421" font-family="Arial,sans-serif" font-size="21" fill="#243b44">cash_vnd: INTEGER</text>
<text x="78" y="456" font-family="Arial,sans-serif" font-size="21" fill="#243b44">created_at: TEXT</text>
<rect x="760" y="160" width="530" height="275" fill="#f4f8fa" stroke="#35566a" stroke-width="2"/>
<text x="780" y="200" font-family="Arial,sans-serif" font-size="28" fill="#243b44">holding</text>
<polyline points="760,215 1290,215" fill="none" stroke="#6c8290" stroke-width="2"/>
<text x="778" y="246" font-family="Arial,sans-serif" font-size="21" fill="#243b44">PK id: INTEGER</text>
<text x="778" y="281" font-family="Arial,sans-serif" font-size="21" fill="#243b44">FK account_id: INTEGER</text>
<text x="778" y="316" font-family="Arial,sans-serif" font-size="21" fill="#243b44">FK instrument_id: INTEGER</text>
<text x="778" y="351" font-family="Arial,sans-serif" font-size="21" fill="#243b44">quantity: INTEGER</text>
<text x="778" y="386" font-family="Arial,sans-serif" font-size="21" fill="#243b44">cost_basis_vnd: INTEGER</text>
<text x="778" y="421" font-family="Arial,sans-serif" font-size="21" fill="#243b44">UQ (account_id, instrument_id)</text>
<rect x="760" y="560" width="530" height="345" fill="#f4f8fa" stroke="#35566a" stroke-width="2"/>
<text x="780" y="600" font-family="Arial,sans-serif" font-size="28" fill="#243b44">trade</text>
<polyline points="760,615 1290,615" fill="none" stroke="#6c8290" stroke-width="2"/>
<text x="778" y="646" font-family="Arial,sans-serif" font-size="21" fill="#243b44">PK id: INTEGER</text>
<text x="778" y="681" font-family="Arial,sans-serif" font-size="21" fill="#243b44">FK account_id: INTEGER</text>
<text x="778" y="716" font-family="Arial,sans-serif" font-size="21" fill="#243b44">FK instrument_id: INTEGER</text>
<text x="778" y="751" font-family="Arial,sans-serif" font-size="21" fill="#243b44">side: TEXT</text>
<text x="778" y="786" font-family="Arial,sans-serif" font-size="21" fill="#243b44">quantity: INTEGER</text>
<text x="778" y="821" font-family="Arial,sans-serif" font-size="21" fill="#243b44">fill_price_vnd: INTEGER</text>
<text x="778" y="856" font-family="Arial,sans-serif" font-size="21" fill="#243b44">realised_pnl_vnd: INTEGER NULL</text>
<text x="778" y="891" font-family="Arial,sans-serif" font-size="21" fill="#243b44">executed_at: TEXT</text>
<rect x="760" y="1050" width="530" height="275" fill="#f4f8fa" stroke="#35566a" stroke-width="2"/>
<text x="780" y="1090" font-family="Arial,sans-serif" font-size="28" fill="#243b44">audit_event</text>
<polyline points="760,1105 1290,1105" fill="none" stroke="#6c8290" stroke-width="2"/>
<text x="778" y="1136" font-family="Arial,sans-serif" font-size="21" fill="#243b44">PK id: INTEGER</text>
<text x="778" y="1171" font-family="Arial,sans-serif" font-size="21" fill="#243b44">FK admin_id: INTEGER</text>
<text x="778" y="1206" font-family="Arial,sans-serif" font-size="21" fill="#243b44">FK target_account_id: INTEGER</text>
<text x="778" y="1241" font-family="Arial,sans-serif" font-size="21" fill="#243b44">previous_status: TEXT</text>
<text x="778" y="1276" font-family="Arial,sans-serif" font-size="21" fill="#243b44">new_status: TEXT</text>
<text x="778" y="1311" font-family="Arial,sans-serif" font-size="21" fill="#243b44">occurred_at: TEXT</text>
<rect x="1540" y="160" width="530" height="170" fill="#f4f8fa" stroke="#35566a" stroke-width="2"/>
<text x="1560" y="200" font-family="Arial,sans-serif" font-size="28" fill="#243b44">instrument</text>
<polyline points="1540,215 2070,215" fill="none" stroke="#6c8290" stroke-width="2"/>
<text x="1558" y="246" font-family="Arial,sans-serif" font-size="21" fill="#243b44">PK id: INTEGER</text>
<text x="1558" y="281" font-family="Arial,sans-serif" font-size="21" fill="#243b44">UQ symbol: TEXT</text>
<text x="1558" y="316" font-family="Arial,sans-serif" font-size="21" fill="#243b44">name: TEXT</text>
<rect x="1540" y="650" width="530" height="275" fill="#f4f8fa" stroke="#35566a" stroke-width="2"/>
<text x="1560" y="690" font-family="Arial,sans-serif" font-size="28" fill="#243b44">price_quote</text>
<polyline points="1540,705 2070,705" fill="none" stroke="#6c8290" stroke-width="2"/>
<text x="1558" y="736" font-family="Arial,sans-serif" font-size="21" fill="#243b44">PK id: INTEGER</text>
<text x="1558" y="771" font-family="Arial,sans-serif" font-size="21" fill="#243b44">FK UQ instrument_id: INTEGER</text>
<text x="1558" y="806" font-family="Arial,sans-serif" font-size="21" fill="#243b44">price_vnd: INTEGER</text>
<text x="1558" y="841" font-family="Arial,sans-serif" font-size="21" fill="#243b44">previous_close_vnd: INTEGER</text>
<text x="1558" y="876" font-family="Arial,sans-serif" font-size="21" fill="#243b44">quoted_at: TEXT</text>
<text x="1558" y="911" font-family="Arial,sans-serif" font-size="21" fill="#243b44">source: TEXT</text>
<polyline points="590,260 760,260" fill="none" stroke="#6c8290" stroke-width="2"/>
<text x="608" y="244" font-family="Arial,sans-serif" font-size="20" fill="#243b44">1        0..*</text>
<polyline points="590,360 655,360 655,660 760,660" fill="none" stroke="#6c8290" stroke-width="2"/>
<text x="605" y="353" font-family="Arial,sans-serif" font-size="20" fill="#243b44">1</text>
<text x="696" y="647" font-family="Arial,sans-serif" font-size="20" fill="#243b44">0..*</text>
<polyline points="1540,260 1290,260" fill="none" stroke="#6c8290" stroke-width="2"/>
<text x="1340" y="244" font-family="Arial,sans-serif" font-size="20" fill="#243b44">0..*             1</text>
<polyline points="1540,300 1420,300 1420,660 1290,660" fill="none" stroke="#6c8290" stroke-width="2"/>
<text x="1470" y="324" font-family="Arial,sans-serif" font-size="20" fill="#243b44">1</text>
<text x="1310" y="647" font-family="Arial,sans-serif" font-size="20" fill="#243b44">0..*</text>
<polyline points="1800,330 1800,650" fill="none" stroke="#6c8290" stroke-width="2"/>
<text x="1815" y="370" font-family="Arial,sans-serif" font-size="20" fill="#243b44">1</text>
<text x="1815" y="627" font-family="Arial,sans-serif" font-size="20" fill="#243b44">0..1</text>
<text x="1570" y="501" font-family="Arial,sans-serif" font-size="21" fill="#243b44">latest snapshot only</text>
<polyline points="190,470 190,1125 760,1125" fill="none" stroke="#47786c" stroke-width="2"/>
<text x="208" y="507" font-family="Arial,sans-serif" font-size="20" fill="#243b44">1</text>
<text x="610" y="1110" font-family="Arial,sans-serif" font-size="20" fill="#243b44">0..*</text>
<text x="240" y="1111" font-family="Arial,sans-serif" font-size="21" fill="#243b44">admin_id</text>
<polyline points="400,470 400,1195 760,1195" fill="none" stroke="#a1734c" stroke-width="2"/>
<text x="417" y="507" font-family="Arial,sans-serif" font-size="20" fill="#243b44">1</text>
<text x="696" y="1180" font-family="Arial,sans-serif" font-size="20" fill="#243b44">0..*</text>
<text x="440" y="1227" font-family="Arial,sans-serif" font-size="20" fill="#243b44">target_account_id</text>
<text x="60" y="1412" font-family="Arial,sans-serif" font-size="22" fill="#243b44">Source: database.py::SCHEMA. Only instrument and price_quote are seeded; other services are not implemented.</text>
</svg>