<svg xmlns="http://www.w3.org/2000/svg" xmlns:xlink="http://www.w3.org/1999/xlink" version="1.1" data-diagram-type="DESCRIPTION" style="width:842px;height:1581px;background:#FFFFFF;" width="842px" height="1581px" viewBox="0 0 842 1581" zoomAndPan="magnify" preserveAspectRatio="none" contentStyleType="text/css"><?plantuml 1.2026.8?><defs/><g font-family="sans-serif" lengthAdjust="spacing"><g class="title" data-source-line="12"><text x="192.974" y="24.533" fill="#000" font-size="14" textLength="449.647" font-weight="700">Investment &amp; Portfolio Management Simulation - Use Case Diagram</text></g><!--cluster Investment & Portfolio Management Simulation--><g class="cluster" data-qualified-name="Investment . Portfolio Management Simulation" id="ent0004" data-source-line="18"><rect x="241" y="208.609" width="330" height="1359" fill="none" style="stroke:#181818;stroke-width:1;" rx="2.5" ry="2.5"/><text x="248.873" y="225.143" fill="#000" font-size="14" textLength="314.255" font-weight="700">Investment &amp; Portfolio Management Simulation</text></g><!--entity UC01--><g class="entity" data-qualified-name="Investment . Portfolio Management Simulation.UC01" id="ent0005" data-source-line="19"><ellipse cx="406.1" cy="762.729" rx="68.6" ry="16.12" fill="#F7F9FC" style="stroke:#263238;stroke-width:0.5;"/><text x="357.466" y="768.034" fill="#000" font-size="14" textLength="97.269">Register / log in</text></g><!--entity UC02--><g class="entity" data-qualified-name="Investment . Portfolio Management Simulation.UC02" id="ent0006" data-source-line="20"><ellipse cx="406.097" cy="1216.429" rx="99.597" ry="22.319" fill="#F7F9FC" style="stroke:#263238;stroke-width:0.5;"/><text x="320.115" y="1221.734" fill="#000" font-size="14" textLength="171.965">Receive initial virtual capital</text></g><!--entity UC03--><g class="entity" data-qualified-name="Investment . Portfolio Management Simulation.UC03" id="ent0007" data-source-line="21"><ellipse cx="405.751" cy="1453.76" rx="93.751" ry="21.15" fill="#F7F9FC" style="stroke:#263238;stroke-width:0.5;"/><text x="326.393" y="1459.064" fill="#000" font-size="14" textLength="158.717">View current market price</text></g><!--entity UC04--><g class="entity" data-qualified-name="Investment . Portfolio Management Simulation.UC04" id="ent0008" data-source-line="22"><ellipse cx="406.204" cy="440.55" rx="87.704" ry="19.941" fill="#F7F9FC" style="stroke:#263238;stroke-width:0.5;"/><text x="333.839" y="445.855" fill="#000" font-size="14" textLength="144.73">Place market buy order</text></g><!--entity UC05--><g class="entity" data-qualified-name="Investment . Portfolio Management Simulation.UC05" id="ent0009" data-source-line="23"><ellipse cx="406.036" cy="908.417" rx="87.036" ry="19.807" fill="#F7F9FC" style="stroke:#263238;stroke-width:0.5;"/><text x="334.454" y="913.721" fill="#000" font-size="14" textLength="143.165">Place market sell order</text></g><!--entity UC06--><g class="entity" data-qualified-name="Investment . Portfolio Management Simulation.UC06" id="ent0010" data-source-line="24"><ellipse cx="406.227" cy="833.655" rx="85.727" ry="19.545" fill="#F7F9FC" style="stroke:#263238;stroke-width:0.5;"/><text x="336.186" y="838.96" fill="#000" font-size="14" textLength="140.082">View portfolio holdings</text></g><!--entity UC07--><g class="entity" data-qualified-name="Investment . Portfolio Management Simulation.UC07" id="ent0011" data-source-line="25"><ellipse cx="406.062" cy="984.422" rx="92.062" ry="20.812" fill="#F7F9FC" style="stroke:#263238;stroke-width:0.5;"/><text x="328.641" y="989.726" fill="#000" font-size="14" textLength="154.841">Set stop-loss / take-profit</text></g><!--entity UC08--><g class="entity" data-qualified-name="Investment . Portfolio Management Simulation.UC08" id="ent0012" data-source-line="26"><ellipse cx="406.037" cy="1294.817" rx="89.037" ry="20.207" fill="#F7F9FC" style="stroke:#263238;stroke-width:0.5;"/><text x="332.116" y="1300.121" fill="#000" font-size="14" textLength="147.841">View transaction history</text></g><!--entity UC09--><g class="entity" data-qualified-name="Investment . Portfolio Management Simulation.UC09" id="ent0013" data-source-line="27"><ellipse cx="406.184" cy="1062.446" rx="97.184" ry="21.837" fill="#F7F9FC" style="stroke:#263238;stroke-width:0.5;"/><text x="322.922" y="1067.751" fill="#000" font-size="14" textLength="166.523">View portfolio performance</text></g><!--entity UC11--><g class="entity" data-qualified-name="Investment . Portfolio Management Simulation.UC11" id="ent0014" data-source-line="28"><ellipse cx="405.83" cy="686.675" rx="110.83" ry="24.566" fill="#F7F9FC" style="stroke:#263238;stroke-width:0.5;"/><text x="307.396" y="691.98" fill="#000" font-size="14" textLength="196.868">Compare with benchmark index</text></g><!--entity UC10--><g class="entity" data-qualified-name="Investment . Portfolio Management Simulation.UC10" id="ent0015" data-source-line="29"><ellipse cx="405.752" cy="1530.56" rx="92.752" ry="20.95" fill="#F7F9FC" style="stroke:#263238;stroke-width:0.5;"/><text x="327.538" y="1535.864" fill="#000" font-size="14" textLength="156.427">Receive balance warning</text></g><!--entity UC12--><g class="entity" data-qualified-name="Investment . Portfolio Management Simulation.UC12" id="ent0016" data-source-line="30"><ellipse cx="405.859" cy="1373.681" rx="108.359" ry="24.072" fill="#F7F9FC" style="stroke:#263238;stroke-width:0.5;"/><text x="310.138" y="1378.986" fill="#000" font-size="14" textLength="191.44">View performance leaderboard</text></g><!--entity ValidateCash--><g class="entity" data-qualified-name="Investment . Portfolio Management Simulation.ValidateCash" id="ent0017" data-source-line="32"><ellipse cx="406.054" cy="347.42" rx="87.054" ry="19.811" fill="#F7F9FC" style="stroke:#263238;stroke-width:0.5;"/><text x="334.451" y="352.725" fill="#000" font-size="14" textLength="143.206">Validate available cash</text></g><!--entity ValidateQuantity--><g class="entity" data-qualified-name="Investment . Portfolio Management Simulation.ValidateQuantity" id="ent0018" data-source-line="33"><ellipse cx="406.117" cy="607.633" rx="83.117" ry="19.023" fill="#F7F9FC" style="stroke:#263238;stroke-width:0.5;"/><text x="339.179" y="612.937" fill="#000" font-size="14" textLength="133.875">Validate held quantity</text></g><!--entity FillOrder--><g class="entity" data-qualified-name="Investment . Portfolio Management Simulation.FillOrder" id="ent0019" data-source-line="34"><ellipse cx="405.874" cy="533.684" rx="88.374" ry="20.075" fill="#F7F9FC" style="stroke:#263238;stroke-width:0.5;"/><text x="332.726" y="538.989" fill="#000" font-size="14" textLength="146.296">Fill order at latest quote</text></g><!--entity UpdateCost--><g class="entity" data-qualified-name="Investment . Portfolio Management Simulation.UpdateCost" id="ent0020" data-source-line="35"><ellipse cx="405.807" cy="268.471" rx="107.307" ry="23.861" fill="#F7F9FC" style="stroke:#263238;stroke-width:0.5;"/><text x="311.245" y="273.775" fill="#000" font-size="14" textLength="189.123">Update weighted average cost</text></g><!--entity TriggerThreshold--><g class="entity" data-qualified-name="Investment . Portfolio Management Simulation.TriggerThreshold" id="ent0021" data-source-line="36"><ellipse cx="406.211" cy="1139.851" rx="86.711" ry="19.742" fill="#F7F9FC" style="stroke:#263238;stroke-width:0.5;"/><text x="335.011" y="1145.156" fill="#000" font-size="14" textLength="142.399">Trigger threshold order</text></g><!--entity investor--><g class="entity" data-qualified-name="investor" id="ent0001" data-source-line="14"><ellipse cx="72" cy="694.609" rx="16" ry="16" fill="#F1F1F1" style="stroke:#181818;stroke-width:0.5;"/><path d="M72,714.609 C76,714.609 79,714.609 83,710.609 C91,710.609 99,718.609 99,726.609 L99,730.609 C99,734.609 95,738.609 91,738.609 L53,738.609 C49,738.609 45,734.609 45,730.609 L45,726.609 C45,718.609 53,710.609 61,710.609 C65,714.609 68,714.609 72,714.609" style="stroke:#181818;stroke-width:0.5;" fill="#F1F1F1"/><text x="47.1" y="753.643" fill="#000" font-size="14" textLength="49.8">Investor</text></g><!--entity market--><g class="entity" data-qualified-name="market" id="ent0002" data-source-line="15"><ellipse cx="72.134" cy="1310.609" rx="16" ry="16" fill="#F1F1F1" style="stroke:#181818;stroke-width:0.5;"/><path d="M72.134,1330.609 C76.134,1330.609 79.134,1330.609 83.134,1326.609 C91.134,1326.609 99.134,1334.609 99.134,1342.609 L99.134,1346.609 C99.134,1350.609 95.134,1354.609 91.134,1354.609 L53.134,1354.609 C49.134,1354.609 45.134,1350.609 45.134,1346.609 L45.134,1342.609 C45.134,1334.609 53.134,1326.609 61.134,1326.609 C65.134,1330.609 68.134,1330.609 72.134,1330.609" style="stroke:#181818;stroke-width:0.5;" fill="#F1F1F1"/><text x="6" y="1369.643" fill="#000" font-size="14" textLength="132.269">Market Data Provider</text></g><!--entity notify--><g class="entity" data-qualified-name="notify" id="ent0003" data-source-line="16"><ellipse cx="71.914" cy="1426.609" rx="16" ry="16" fill="#F1F1F1" style="stroke:#181818;stroke-width:0.5;"/><path d="M71.914,1446.609 C75.914,1446.609 78.914,1446.609 82.914,1442.609 C90.914,1442.609 98.914,1450.609 98.914,1458.609 L98.914,1462.609 C98.914,1466.609 94.914,1470.609 90.914,1470.609 L52.914,1470.609 C48.914,1470.609 44.914,1466.609 44.914,1462.609 L44.914,1458.609 C44.914,1450.609 52.914,1442.609 60.914,1442.609 C64.914,1446.609 67.914,1446.609 71.914,1446.609" style="stroke:#181818;stroke-width:0.5;" fill="#F1F1F1"/><text x="12" y="1485.643" fill="#000" font-size="14" textLength="119.827">Notification Service</text></g><g class="entity" data-qualified-name="GMN44" id="ent0045" data-source-line="65"><path d="M618,1195.109 L618,1212.609 L505.8,1216.609 L618,1220.609 L618,1237.813 A0,0 0 0 0 618,1237.813 L827.595,1237.813 A0,0 0 0 0 827.595,1237.813 L827.595,1205.109 L817.595,1195.109 L618,1195.109 A0,0 0 0 0 618,1195.109" style="stroke:#181818;stroke-width:0.5;" fill="#FEFFDD"/><path d="M817.595,1195.109 L817.595,1205.109 L827.595,1205.109 L817.595,1195.109" style="stroke:#181818;stroke-width:0.5;" fill="#FEFFDD"/><text x="624" y="1213.604" fill="#000" font-size="13" textLength="161.853">Every new account receives</text><text x="624" y="1229.956" fill="#000" font-size="13" textLength="188.595">exactly 100,000,000 VND (BR5).</text></g><g class="entity" data-qualified-name="GMN47" id="ent0048" data-source-line="70"><path d="M330.5,166.609 L330.5,192.961 L481.557,192.961 L481.557,176.609 L471.557,166.609 L330.5,166.609" style="stroke:#181818;stroke-width:0.5;" fill="#FEFFDD"/><path d="M471.557,166.609 L471.557,176.609 L481.557,176.609 L471.557,166.609" style="stroke:#181818;stroke-width:1;" fill="#FEFFDD"/><text x="336.5" y="185.104" fill="#000" font-size="13" textLength="130.057">US04, BR1, BR3, BR6</text></g><g class="entity" data-qualified-name="GMN50" id="ent0051" data-source-line="73"><path d="M346.5,105.609 L346.5,131.961 L465.044,131.961 L465.044,115.609 L455.044,105.609 L346.5,105.609" style="stroke:#181818;stroke-width:0.5;" fill="#FEFFDD"/><path d="M455.044,105.609 L455.044,115.609 L465.044,115.609 L455.044,105.609" style="stroke:#181818;stroke-width:1;" fill="#FEFFDD"/><text x="352.5" y="124.104" fill="#000" font-size="13" textLength="97.544">US05, BR2, BR3</text></g><g class="entity" data-qualified-name="GMN53" id="ent0054" data-source-line="76"><path d="M363,44.609 L363,70.961 L449.032,70.961 L449.032,54.609 L439.032,44.609 L363,44.609" style="stroke:#181818;stroke-width:0.5;" fill="#FEFFDD"/><path d="M439.032,44.609 L439.032,54.609 L449.032,54.609 L439.032,44.609" style="stroke:#181818;stroke-width:1;" fill="#FEFFDD"/><text x="369" y="63.104" fill="#000" font-size="13" textLength="65.032">US07, BR4</text></g><!--link investor to UC01--><g class="link" data-entity-1="ent0001" data-entity-2="ent0005" id="lnk22" data-source-line="39" data-link-type="dependency"><path d="M99.68,685.319 C132.15,649.799 187.31,602.059 225,636.609 C240.13,650.479 219.3,713.329 233,728.609 C259.53,758.179 298.702,766.305 335.642,767.295" style="stroke:#455A64;stroke-width:1;" fill="none" id="investor-to-UC01"/><polygon points="340.64,767.429,331.75,763.19,335.642,767.295,331.536,771.187,340.64,767.429" fill="#455A64" style="stroke:#455A64;stroke-width:1;stroke-linejoin:miter;stroke-miterlimit:10;"/></g><!--link investor to UC03--><g class="link" data-entity-1="ent0001" data-entity-2="ent0007" id="lnk23" data-source-line="40" data-link-type="dependency"><path d="M76.2,757.409 C84.28,847.979 109.25,1075.629 168,1256.609 C185.86,1311.629 206.64,1318.759 225,1373.609 C230.89,1391.219 220.07,1401.279 233,1414.609 C253.68,1435.929 278.457,1445.814 307.377,1450.954" style="stroke:#455A64;stroke-width:1;" fill="none" id="investor-to-UC03"/><polygon points="312.3,1451.829,304.139,1446.316,307.377,1450.954,302.739,1454.193,312.3,1451.829" fill="#455A64" style="stroke:#455A64;stroke-width:1;stroke-linejoin:miter;stroke-miterlimit:10;"/></g><!--link investor to UC04--><g class="link" data-entity-1="ent0001" data-entity-2="ent0008" id="lnk24" data-source-line="41" data-link-type="dependency"><path d="M90,677.879 C114,626.899 162.86,539.809 233,495.609 C265.09,475.379 300.424,463.22 333.884,454.72" style="stroke:#455A64;stroke-width:1;" fill="none" id="investor-to-UC04"/><polygon points="338.73,453.489,329.022,451.828,333.884,454.72,330.992,459.582,338.73,453.489" fill="#455A64" style="stroke:#455A64;stroke-width:1;stroke-linejoin:miter;stroke-miterlimit:10;"/></g><!--link investor to UC05--><g class="link" data-entity-1="ent0001" data-entity-2="ent0009" id="lnk25" data-source-line="42" data-link-type="dependency"><path d="M99.57,708.089 C133.51,697.829 191.79,686.899 225,718.609 C237.23,730.289 222.07,857.709 233,870.609 C254.06,895.459 282.401,905.572 314.121,909.652" style="stroke:#455A64;stroke-width:1;" fill="none" id="investor-to-UC05"/><polygon points="319.08,910.289,310.664,905.174,314.121,909.652,309.643,913.109,319.08,910.289" fill="#455A64" style="stroke:#455A64;stroke-width:1;stroke-linejoin:miter;stroke-miterlimit:10;"/></g><!--link investor to UC06--><g class="link" data-entity-1="ent0001" data-entity-2="ent0010" id="lnk26" data-source-line="43" data-link-type="dependency"><path d="M99.7,697.559 C133.22,674.979 190.51,645.379 225,677.609 C244.2,695.549 215.86,775.689 233,795.609 C254.54,820.649 283.558,830.704 315.648,834.684" style="stroke:#455A64;stroke-width:1;" fill="none" id="investor-to-UC06"/><polygon points="320.61,835.299,312.171,830.222,315.648,834.684,311.186,838.161,320.61,835.299" fill="#455A64" style="stroke:#455A64;stroke-width:1;stroke-linejoin:miter;stroke-miterlimit:10;"/></g><!--link investor to UC07--><g class="link" data-entity-1="ent0001" data-entity-2="ent0011" id="lnk27" data-source-line="44" data-link-type="dependency"><path d="M99.76,716.299 C134.75,716.229 195.08,722.009 225,759.609 C237.88,775.799 219.75,929.729 233,945.609 C252.81,969.349 278.83,979.658 309.04,984.378" style="stroke:#455A64;stroke-width:1;" fill="none" id="investor-to-UC07"/><polygon points="313.98,985.149,305.705,979.808,309.04,984.378,304.47,987.712,313.98,985.149" fill="#455A64" style="stroke:#455A64;stroke-width:1;stroke-linejoin:miter;stroke-miterlimit:10;"/></g><!--link investor to UC08--><g class="link" data-entity-1="ent0001" data-entity-2="ent0012" id="lnk28" data-source-line="45" data-link-type="dependency"><path d="M81.35,757.289 C95.95,824.529 128.38,964.749 168,1079.609 C188.84,1140.019 206.62,1150.409 225,1211.609 C230.84,1231.059 218.94,1241.949 233,1256.609 C254.59,1279.119 281.347,1288.966 311.657,1293.586" style="stroke:#455A64;stroke-width:1;" fill="none" id="investor-to-UC08"/><polygon points="316.6,1294.339,308.306,1289.029,311.657,1293.586,307.1,1296.938,316.6,1294.339" fill="#455A64" style="stroke:#455A64;stroke-width:1;stroke-linejoin:miter;stroke-miterlimit:10;"/></g><!--link investor to UC09--><g class="link" data-entity-1="ent0001" data-entity-2="ent0013" id="lnk29" data-source-line="46" data-link-type="dependency"><path d="M99.5,728.299 C139.08,744.849 210.54,777.209 225,800.609 C237.97,821.609 217.3,1003.559 233,1022.609 C251.62,1045.209 275.363,1055.601 303.983,1060.891" style="stroke:#455A64;stroke-width:1;" fill="none" id="investor-to-UC09"/><polygon points="308.9,1061.799,300.777,1056.23,303.983,1060.891,299.323,1064.097,308.9,1061.799" fill="#455A64" style="stroke:#455A64;stroke-width:1;stroke-linejoin:miter;stroke-miterlimit:10;"/></g><!--link investor to UC11--><g class="link" data-entity-1="ent0001" data-entity-2="ent0014" id="lnk30" data-source-line="47" data-link-type="dependency"><path d="M91.53,678.029 C107.37,649.319 133.15,612.639 168,595.609 C190.76,584.489 205.67,579.239 225,595.609 C241.5,609.589 218.33,627.719 233,643.609 C250.23,662.269 269.374,672.098 293.974,678.568" style="stroke:#455A64;stroke-width:1;" fill="none" id="investor-to-UC11"/><polygon points="298.81,679.839,291.123,673.682,293.974,678.568,289.089,681.419,298.81,679.839" fill="#455A64" style="stroke:#455A64;stroke-width:1;stroke-linejoin:miter;stroke-miterlimit:10;"/></g><!--link investor to UC12--><g class="link" data-entity-1="ent0001" data-entity-2="ent0016" id="lnk31" data-source-line="48" data-link-type="dependency"><path d="M76.99,757.179 C87.94,860.189 120.81,1133.969 168,1210.609 C184.78,1237.859 209.42,1226.659 225,1254.609 C233.38,1269.639 221.69,1318.649 233,1331.609 C249.98,1351.069 269.48,1361.064 294.54,1367.344" style="stroke:#455A64;stroke-width:1;" fill="none" id="investor-to-UC12"/><polygon points="299.39,1368.559,291.632,1362.492,294.54,1367.344,289.688,1370.252,299.39,1368.559" fill="#455A64" style="stroke:#455A64;stroke-width:1;stroke-linejoin:miter;stroke-miterlimit:10;"/></g><!--link market to UC03--><g class="link" data-entity-1="ent0002" data-entity-2="ent0007" id="lnk32" data-source-line="50" data-link-type="dependency"><path d="M138.32,1371.269 C166.71,1386.409 200.78,1402.999 233,1414.609 C264.26,1425.869 295.012,1433.583 325.732,1439.893" style="stroke:#455A64;stroke-width:1;" fill="none" id="market-to-UC03"/><polygon points="330.63,1440.899,322.619,1435.17,325.732,1439.893,321.009,1443.007,330.63,1440.899" fill="#455A64" style="stroke:#455A64;stroke-width:1;stroke-linejoin:miter;stroke-miterlimit:10;"/></g><!--link market to FillOrder--><g class="link" data-entity-1="ent0002" data-entity-2="ent0019" id="lnk33" data-source-line="51" data-link-type="dependency"><path d="M105.82,1294.059 C142.93,1246.579 201.28,1162.889 225,1079.609 C228.87,1066.009 224.03,581.539 233,570.609 C253.54,545.579 281.597,535.548 313.237,531.668" style="stroke:#455A64;stroke-width:1;" fill="none" id="market-to-FillOrder"/><polygon points="318.2,531.059,308.78,528.185,313.237,531.668,309.754,536.125,318.2,531.059" fill="#455A64" style="stroke:#455A64;stroke-width:1;stroke-linejoin:miter;stroke-miterlimit:10;"/></g><!--link notify to TriggerThreshold--><g class="link" data-entity-1="ent0003" data-entity-2="ent0021" id="lnk34" data-source-line="52" data-link-type="dependency"><path d="M132.38,1428.989 C165.7,1414.089 204.58,1390.399 225,1355.609 C235.08,1338.439 220.15,1191.809 233,1176.609 C254.2,1151.529 282.955,1141.578 314.945,1137.788" style="stroke:#455A64;stroke-width:1;" fill="none" id="notify-to-TriggerThreshold"/><polygon points="319.91,1137.199,310.502,1134.286,314.945,1137.788,311.443,1142.23,319.91,1137.199" fill="#455A64" style="stroke:#455A64;stroke-width:1;stroke-linejoin:miter;stroke-miterlimit:10;"/></g><!--link notify to UC10--><g class="link" data-entity-1="ent0003" data-entity-2="ent0015" id="lnk35" data-source-line="53" data-link-type="dependency"><path d="M132.15,1465.639 C162.28,1473.679 199.52,1483.419 233,1491.609 C267.65,1500.079 301.5,1507.831 333.43,1514.951" style="stroke:#455A64;stroke-width:1;" fill="none" id="notify-to-UC10"/><polygon points="338.31,1516.039,330.396,1510.176,333.43,1514.951,328.655,1517.985,338.31,1516.039" fill="#455A64" style="stroke:#455A64;stroke-width:1;stroke-linejoin:miter;stroke-miterlimit:10;"/></g><!--link UC04 to ValidateCash--><g class="link" data-entity-1="ent0008" data-entity-2="ent0017" id="lnk36" data-source-line="55" data-link-type="dependency"><path d="M406,420.429 C406,404.829 406,388.339 406,372.749" style="stroke:#455A64;stroke-width:1;stroke-dasharray:7,7;" fill="none" id="UC04-to-ValidateCash"/><polygon points="406,367.749,402,376.749,406,372.749,410,376.749,406,367.749" fill="#455A64" style="stroke:#455A64;stroke-width:1;stroke-linejoin:miter;stroke-miterlimit:10;"/><text x="366.5" y="399.604" fill="#000" font-size="13" textLength="55.656">«include»</text></g><!--link UC04 to FillOrder--><g class="link" data-entity-1="ent0008" data-entity-2="ent0019" id="lnk37" data-source-line="56" data-link-type="dependency"><path d="M406,460.749 C406,476.339 406,492.829 406,508.429" style="stroke:#455A64;stroke-width:1;stroke-dasharray:7,7;" fill="none" id="UC04-to-FillOrder"/><polygon points="406,513.429,410,504.429,406,508.429,402,504.429,406,513.429" fill="#455A64" style="stroke:#455A64;stroke-width:1;stroke-linejoin:miter;stroke-miterlimit:10;"/><text x="366.5" y="492.604" fill="#000" font-size="13" textLength="55.656">«include»</text></g><!--link UC04 to UpdateCost--><g class="link" data-entity-1="ent0008" data-entity-2="ent0020" id="lnk38" data-source-line="57" data-link-type="dependency"><path d="M322.2,434.589 C257.54,425.609 182.18,403.249 202,347.609 C216.88,305.839 255.727,286.815 298.907,277.305" style="stroke:#455A64;stroke-width:1;stroke-dasharray:7,7;" fill="none" id="UC04-to-UpdateCost"/><polygon points="303.79,276.229,294.14,274.259,298.907,277.305,295.861,282.072,303.79,276.229" fill="#455A64" style="stroke:#455A64;stroke-width:1;stroke-linejoin:miter;stroke-miterlimit:10;"/><text x="169" y="362.104" fill="#000" font-size="13" textLength="55.656">«include»</text></g><!--link UC05 to ValidateQuantity--><g class="link" data-entity-1="ent0009" data-entity-2="ent0018" id="lnk39" data-source-line="58" data-link-type="dependency"><path d="M342.31,922.329 C296.25,928.139 236.3,926.439 202,888.609 C196,881.999 162.31,720.769 233,644.609 C255.78,620.069 285.554,610.3 317.944,606.51" style="stroke:#455A64;stroke-width:1;stroke-dasharray:7,7;" fill="none" id="UC05-to-ValidateQuantity"/><polygon points="322.91,605.929,313.506,603.002,317.944,606.51,314.436,610.948,322.91,605.929" fill="#455A64" style="stroke:#455A64;stroke-width:1;stroke-linejoin:miter;stroke-miterlimit:10;"/><text x="169" y="885.104" fill="#000" font-size="13" textLength="55.656">«include»</text></g><!--link UC05 to FillOrder--><g class="link" data-entity-1="ent0009" data-entity-2="ent0019" id="lnk40" data-source-line="59" data-link-type="dependency"><path d="M318.78,908.299 C272.55,902.719 221.38,886.239 202,842.609 C193.28,822.989 119.66,694.539 233,570.609 C254.35,547.259 281.567,537.407 312.407,533.127" style="stroke:#455A64;stroke-width:1;stroke-dasharray:7,7;" fill="none" id="UC05-to-FillOrder"/><polygon points="317.36,532.439,307.896,529.715,312.407,533.127,308.995,537.639,317.36,532.439" fill="#455A64" style="stroke:#455A64;stroke-width:1;stroke-linejoin:miter;stroke-miterlimit:10;"/><text x="169" y="839.104" fill="#000" font-size="13" textLength="55.656">«include»</text></g><!--link UC07 to TriggerThreshold--><g class="link" data-entity-1="ent0011" data-entity-2="ent0021" id="lnk41" data-source-line="60" data-link-type="dependency"><path d="M316.82,989.859 C252.15,998.049 179.65,1018.879 202,1071.609 C220.83,1116.039 267.689,1132.319 314.379,1138.159" style="stroke:#455A64;stroke-width:1;stroke-dasharray:7,7;" fill="none" id="UC07-to-TriggerThreshold"/><polygon points="319.34,1138.779,310.906,1133.693,314.379,1138.159,309.913,1141.631,319.34,1138.779" fill="#455A64" style="stroke:#455A64;stroke-width:1;stroke-linejoin:miter;stroke-miterlimit:10;"/><text x="169" y="1068.104" fill="#000" font-size="13" textLength="55.656">«include»</text></g><!--link UC10 to ValidateCash--><g class="link" data-entity-1="ent0015" data-entity-2="ent0017" id="lnk42" data-source-line="61" data-link-type="dependency"><path d="M312.68,1530.969 C282.87,1526.109 252.56,1514.979 233,1491.609 C134.5,1373.909 197.24,954.979 203,801.609 C209.67,623.899 122.71,542.109 233,402.609 C254.7,375.169 285.209,362.217 318.359,355.187" style="stroke:#455A64;stroke-width:1;stroke-dasharray:7,7;" fill="none" id="UC10-to-ValidateCash"/><polygon points="323.25,354.149,313.616,352.103,318.359,355.187,315.276,359.929,323.25,354.149" fill="#455A64" style="stroke:#455A64;stroke-width:1;stroke-linejoin:miter;stroke-miterlimit:10;"/><text x="170" y="816.104" fill="#000" font-size="13" textLength="53.492">«extend»</text></g><!--link UC11 to UC09--><g class="link" data-entity-1="ent0014" data-entity-2="ent0013" id="lnk43" data-source-line="62" data-link-type="dependency"><path d="M299.37,693.829 C274.92,700.179 250.89,710.879 233,728.609 C194.26,767.009 209.72,793.479 203,847.609 C193.28,925.919 178.28,965.749 233,1022.609 C252.99,1043.379 276.544,1053.347 304.624,1058.857" style="stroke:#455A64;stroke-width:1;stroke-dasharray:7,7;" fill="none" id="UC11-to-UC09"/><polygon points="309.53,1059.819,301.469,1054.161,304.624,1058.857,299.928,1062.012,309.53,1059.819" fill="#455A64" style="stroke:#455A64;stroke-width:1;stroke-linejoin:miter;stroke-miterlimit:10;"/><text x="170" y="862.104" fill="#000" font-size="13" textLength="53.492">«extend»</text></g><!--link UC04 to GMN47--><g class="link" data-entity-1="ent0008" data-entity-2="ent0048" id="lnk49" data-source-line="70" data-link-type="association"><path d="M320.7,436.079 C272.33,428.559 215.62,410.309 185.5,367.109 C154.74,322.999 154.74,290.219 185.5,246.109 C217.4,200.359 280.01,184.719 330.39,179.969" style="stroke:#455A64;stroke-width:1;stroke-dasharray:7,7;" fill="none" id="UC04-GMN47"/></g><!--link UC05 to GMN50--><g class="link" data-entity-1="ent0009" data-entity-2="ent0051" id="lnk52" data-source-line="73" data-link-type="association"><path d="M320.22,912.139 C271.69,908.959 214.97,895.369 185.5,853.109 C141.84,790.499 141.84,228.719 185.5,166.109 C220.22,116.319 293.73,109.409 346.33,111.709" style="stroke:#455A64;stroke-width:1;stroke-dasharray:7,7;" fill="none" id="UC05-GMN50"/></g><!--link UC07 to GMN53--><g class="link" data-entity-1="ent0011" data-entity-2="ent0054" id="lnk55" data-source-line="76" data-link-type="association"><path d="M314.63,987.249 C267.41,983.159 213.87,968.789 185.5,928.109 C133.2,853.099 133.2,180.119 185.5,105.109 C224.02,49.859 310.32,47.409 362.8,51.749" style="stroke:#455A64;stroke-width:1;stroke-dasharray:7,7;" fill="none" id="UC07-GMN53"/></g><?plantuml-src bLNRJjj047ttLunIgHU9qDm35K8geKXzW582l4_iYRrYi-lkRXAYgl_UMTkRE34WyH0dcNFcVl4dUB044-J7fS3Ku0BQy5EjoBe5AGSVuLORDzTIQBX6XIaLugbOB2KweLKaQUx0QJ0YpHmamb1SoEsJK3bwWpd6JwmuTHj9u65KgQGQ0MEdJGdZcgnUr46ROQBNGgKmHsdhoD9Ix0F_6m5Si8_KwALA9bfg0n-knbUdLnEFQ9EGgQIzKR_NFs7fTsFqkX8EXiFleq7qBugSS1p3UzBdQXqMC8gAV2ep_0CjYEft1RMkqJoHWqjq2BT6hmI7sFB4HG44sersOYxYqjEKp4h4LD2K1pPHjAqcjDuJTQkeMQXVwuvIOHqP-0fIfnniuUDXqkdkis8IAs9OE84ILiAu9N_7c0k7CkZqwZgFWjOGButn_ilS83SX2sRtw-nRYJ45scovWQ9rWJfubMf9odtki154lgr8fcN2usG3TrJdJhqvf_EsrDPoFHm-KJitUYvSu8yRjfr1PR4OUyY4x_Cca4_U22GdCzTcWMfNZjCwVQ8NFEW4Q-4oc96ACvylrp-XvqgX-sA7PYYzKLYZKPnfu7QQiUmY04d81PnfD4bGw4Lx6YX5WevtT8L2ueo7Ze6i80UCzo1xKISZcS2V9IfUiSsUokzAM5Ux4g6XW0vuPdcoMLkxib0U_kNHkiv3NZXQaxz3b72KP7Zo8TQsQbr1cF3VkjeztwsK_RZCaFMZKHka2hiFa3yHOPEXtJulL-HGqcz81Wt9i24PDIJZXkIa8Jazb7GRyVWkLdko3R3sVrVBygOKmaRYDQmOfCXd1SVdUus7Rt1s9bGibmcTdsyfMm-luBk-D0d3keymAQ_Gtl0pzlXXKWrQj_DYHlJiI2Kberi4p7NVHtnzg7e3wdcuWZzu0ZUWUCymZldLvFpBpo-ePP2U-M383NGxdQDE-O77cqluV74t_78SiLr_vAaoFTFEwKLbsn_2XsbdS0GNTrt_wFl7QAVJL1cMAaDFx1KgRx779NliYOCTyJy0?></g></svg>